<?xml version="1.0" ?><!DOCTYPE svg  PUBLIC '-//W3C//DTD SVG 1.0//EN'  'http://www.w3.org/TR/2001/REC-SVG-20010904/DTD/svg10.dtd'><svg enable-background="new 0 0 27.564 32.016" height="32.016" overflow="visible" viewBox="0 0 27.564 32.016" width="27.564" xml:space="preserve" xmlns="http://www.w3.org/2000/svg" xmlns:xlink="http://www.w3.org/1999/xlink"><g><g id="Euro-Sign_2_"><g id="Euro-Sign_1_"><path d="M20.25,26.174c-3.873,0-6.762-1.522-8.388-4.174H20v-4h-9.501        c-0.086-0.621-0.138-1.267-0.138-1.946c0-0.727,0.058-1.406,0.149-2.054H20v-4h-8.13c1.727-2.848,4.778-4.25,8.335-4.25        c2.529,0,4.508,0.552,5.887,1.15l1.473-5.52C26.322,0.736,23.563,0,19.928,0C12.666,0,6.522,3.513,4.108,10H0v4h3.157        C3.064,14.781,3,15.581,3,16.422c0,0.534,0.022,1.06,0.063,1.578H0v4h3.842c1.906,5.962,7.078,10.016,15.396,10.016        c3.727,0,6.67-0.736,7.912-1.334l-1.012-5.52C24.713,25.76,22.412,26.174,20.25,26.174z" fill="#5FCCFF" id="Euro-Sign"/><g id="Shadow"><path d="M11,18h-0.501c0.211,1.519,0.668,2.865,1.364,4H15L11,18z" fill="#51AED9"/><path d="M12,10h-0.13c-0.674,1.111-1.142,2.443-1.361,4H16L12,10z" fill="#51AED9"/></g></g></g></g></svg>